<svg xmlns="http://www.w3.org/2000/svg" width="434" height="381" viewBox="0 0 434 381">
<g>
<path d="M 275.50 289.41 L 242.50 230.03 L 241.96 276.35 L 246.96 281.56 L 241.23 284.76 C238.08,286.51 233.14,289.32 230.25,291.00 L 225.00 294.04 L 225.00 194.92 L 234.17 195.21 L 243.33 195.50 L 284.50 265.98 L 285.50 195.50 L 294.09 195.21 L 302.69 194.93 L 303.34 209.21 C303.70,217.07 303.99,240.17 304.00,260.53 C304.00,293.19 304.30,300.44 306.55,321.90 C307.95,335.28 308.97,346.81 308.80,347.51 C308.64,348.22 293.65,322.07 275.50,289.41 ZM 127.01 346.42 C127.01,345.36 128.59,332.85 130.51,318.60 L 134.00 292.70 L 134.00 195.00 L 152.00 195.00 L 152.00 230.00 L 189.00 230.00 L 189.00 195.00 L 207.00 195.00 L 207.00 294.16 L 203.75 292.20 C201.96,291.12 197.12,288.35 193.00,286.04 C183.43,280.70 183.28,280.52 186.39,278.48 L 189.00 276.77 L 189.00 248.00 L 152.00 248.00 L 152.00 294.63 L 139.88 321.06 C133.21,335.60 127.59,347.69 127.38,347.92 C127.17,348.15 127.00,347.47 127.01,346.42 Z" fill="rgba(99,7,31,1)"/>
<path d="M 152.00 337.91 C170.43,318.99 185.84,303.35 186.27,303.16 C187.04,302.82 206.90,317.07 206.96,318.00 C206.99,318.50 121.71,371.14 119.61,371.91 C119.00,372.14 133.57,356.84 152.00,337.91 ZM 270.75 345.24 C245.59,330.53 225.02,318.27 225.03,318.00 C225.06,317.40 247.79,303.62 249.41,303.22 C250.37,302.98 264.96,317.69 307.42,361.75 C312.86,367.39 317.12,372.00 316.90,371.99 C316.68,371.99 295.91,359.95 270.75,345.24 ZM 64.96 190.95 C35.56,170.57 10.84,153.24 10.04,152.45 C8.76,151.18 18.61,151.00 87.67,151.00 L 166.77 151.00 L 175.31 124.75 C180.01,110.31 190.96,76.58 199.65,49.78 C208.35,22.98 215.75,1.38 216.10,1.78 C216.45,2.18 219.69,11.67 223.28,22.88 L 229.82 43.25 L 217.51 80.88 C210.74,101.57 200.86,131.88 195.55,148.24 L 185.89 177.98 L 138.34 178.24 L 90.79 178.50 L 104.89 187.00 L 118.99 195.50 L 119.00 211.75 C119.00,220.69 118.87,228.00 118.71,228.00 C118.55,228.00 94.37,211.33 64.96,190.95 ZM 318.00 211.72 L 318.00 195.19 L 329.59 186.85 L 341.19 178.50 L 293.39 178.00 L 245.60 177.50 L 233.67 139.55 L 221.75 101.61 L 227.97 82.05 C231.39,71.30 234.51,62.16 234.90,61.74 C235.30,61.32 242.17,81.12 250.16,105.74 L 264.69 150.50 L 344.10 151.00 L 423.50 151.50 L 374.00 187.43 C346.77,207.19 323.04,224.46 321.25,225.80 L 318.00 228.24 L 318.00 211.72 Z" fill="rgba(204,158,50,1)"/>
</g>
</svg>