<?xml version="1.0" encoding="UTF-8"?>
<svg version="1.1" xmlns="http://www.w3.org/2000/svg" width="32" height="32">
<path d="M0 0 C3 1 3 1 4.1875 2.875 C5 5 5 5 5 8 C7.97 8 10.94 8 14 8 C12.8125 12.75 12.8125 12.75 10 15 C9.34 15 8.68 15 8 15 C8.66 18.3 9.32 21.6 10 25 C5 24 5 24 2.5 22.75 C-0.08770918 21.65623387 -0.08770918 21.65623387 -2.625 23.375 C-3.40875 23.91125 -4.1925 24.4475 -5 25 C-5.99 25 -6.98 25 -8 25 C-7.34 21.7 -6.68 18.4 -6 15 C-7.32 14.34 -8.64 13.68 -10 13 C-10.66 12.34 -11.32 11.68 -12 11 C-12 10.01 -12 9.02 -12 8 C-9.03 8 -6.06 8 -3 8 C-2.690625 6.865625 -2.38125 5.73125 -2.0625 4.5625 C-1 1 -1 1 0 0 Z " fill="#CC9E31" transform="translate(15,1)"/>
<path d="M0 0 C-3.625 3 -3.625 3 -7 3 C-7 2.01 -7 1.02 -7 0 C-3.86650268 -1.04449911 -3.01031744 -0.93423645 0 0 Z " fill="#D09D2D" transform="translate(7,18)"/>
<path d="M0 0 C2.31 0.33 4.62 0.66 7 1 C7 1.99 7 2.98 7 4 C4.625 3.6875 4.625 3.6875 2 3 C1.34 2.01 0.68 1.02 0 0 Z " fill="#D09D2D" transform="translate(25,17)"/>
<path d="M0 0 C0.99 0 1.98 0 3 0 C2.75 1.875 2.75 1.875 2 4 C-0.0625 5.25 -0.0625 5.25 -2 6 C-1.34 4.02 -0.68 2.04 0 0 Z " fill="#CF9C2E" transform="translate(24,0)"/>
<path d="M0 0 C0.99 0 1.98 0 3 0 C3.66 1.98 4.32 3.96 5 6 C3.0625 5.25 3.0625 5.25 1 4 C0.25 1.875 0.25 1.875 0 0 Z " fill="#CF9C2F" transform="translate(5,0)"/>
<path d="M0 0 C0.66 0 1.32 0 2 0 C2.33 1.98 2.66 3.96 3 6 C2.01 6.33 1.02 6.66 0 7 C0 4.69 0 2.38 0 0 Z " fill="#CE9C2F" transform="translate(15,25)"/>
</svg>
