<svg width="32" height="32" viewBox="0 0 32 32" fill="none" xmlns="http://www.w3.org/2000/svg">
<path d="M9.75728 22.9988C9.69001 23.066 9.60195 23.0996 9.51381 23.0996C9.42568 23.0996 9.33762 23.066 9.27035 22.9988L7.7673 21.4958C7.56845 21.2969 7.45891 21.0325 7.45891 20.7513C7.45891 20.4701 7.56838 20.2057 7.7673 20.0068C7.96615 19.8079 8.23054 19.6985 8.51173 19.6985C8.79293 19.6985 9.05732 19.8079 9.25617 20.0069L9.51375 20.2644L11.1152 18.6629C10.5993 18.265 9.9712 18.0488 9.31132 18.0488C9.30402 18.0488 9.29679 18.0488 9.28956 18.0489C7.71979 18.0601 6.40133 19.3446 6.35045 20.9123C6.29516 22.6157 7.70354 24.0766 9.49639 23.9677C10.9802 23.8778 12.1984 22.6432 12.2699 21.157C12.2802 20.9426 12.2674 20.7309 12.2328 20.5231L9.75728 22.9988Z" fill="#8B4513"/>
<path d="M17.0211 15.6392H18.7424V17.0162H17.0211V15.6392Z" fill="#8B4513"/>
<path d="M12.854 18.0488C12.7566 18.0488 12.6651 18.0867 12.5963 18.1555L9.75734 20.9945C9.62287 21.129 9.40489 21.1289 9.27049 20.9946L8.76944 20.4936C8.70059 20.4248 8.60916 20.3869 8.51187 20.3869C8.41451 20.3869 8.32307 20.4248 8.25429 20.4936C8.18544 20.5624 8.14757 20.6539 8.14757 20.7512C8.14757 20.8485 8.18544 20.9399 8.25422 21.0087L9.51388 22.2684L13.1116 18.6707C13.2536 18.5287 13.2536 18.2975 13.1116 18.1555C13.0427 18.0867 12.9513 18.0488 12.854 18.0488Z" fill="#8B4513"/>
<path d="M15.6096 23.2124H17.3309V24.5895H15.6096V23.2124Z" fill="#8B4513"/>
<path d="M16.3326 19.4263H18.0539V20.8033H16.3326V19.4263Z" fill="#8B4513"/>
<path d="M19.3965 23.2124H21.1178V24.5895H19.3965V23.2124Z" fill="#8B4513"/>
<path d="M20.808 15.6392H22.5293V17.0162H20.808V15.6392Z" fill="#8B4513"/>
<path d="M24.3581 27.0002H29.0087L26.6317 24.4165L24.3581 27.0002Z" fill="#8B4513"/>
<path d="M27.3731 13.0371L24.2538 26.0758L26.2956 23.7556L26.6969 20.0771C26.7175 19.8881 26.8878 19.7521 27.0765 19.7721C27.2655 19.7928 27.402 19.9627 27.3814 20.1517L26.9852 23.7832L29.3695 26.3749L28.0686 10.2817L27.3731 13.0371Z" fill="#8B4513"/>
<path d="M5.27793 13.2983L2 27H23.3248L26.6028 13.2983H5.27793ZM16.3326 15.2951C16.3326 15.1049 16.4867 14.9508 16.6768 14.9508H19.0867C19.2768 14.9508 19.4309 15.1049 19.4309 15.2951V17.3606C19.4309 17.5508 19.2768 17.7049 19.0867 17.7049H16.6768C16.4867 17.7049 16.3326 17.5508 16.3326 17.3606V15.2951ZM13.5984 19.158L12.8047 19.9517C12.9262 20.3515 12.9782 20.7671 12.9578 21.1904C12.8638 23.1458 11.2577 24.662 9.31703 24.662C8.36756 24.6621 7.44844 24.2923 6.76653 23.6293C6.03153 22.9147 5.62908 21.9163 5.66241 20.8903C5.69298 19.9485 6.08516 19.0643 6.76673 18.4003C7.4481 17.7366 8.34236 17.3675 9.28474 17.3607C10.1386 17.3553 10.9504 17.6411 11.6058 18.1728L12.1095 17.6691C12.3084 17.4702 12.5728 17.3607 12.854 17.3607C13.1352 17.3607 13.3996 17.4702 13.5984 17.6691C14.0088 18.0795 14.0089 18.7474 13.5984 19.158ZM18.0195 24.9344C18.0195 25.1246 17.8654 25.2787 17.6752 25.2787H15.2653C15.0752 25.2787 14.9211 25.1246 14.9211 24.9344V22.8689C14.9211 22.6787 15.0752 22.5246 15.2653 22.5246H17.6752C17.8654 22.5246 18.0195 22.6787 18.0195 22.8689V24.9344ZM18.3981 21.4918H15.9883C15.7982 21.4918 15.644 21.3377 15.644 21.1475V19.082C15.644 18.8918 15.7982 18.7377 15.9883 18.7377H18.3981C18.5883 18.7377 18.7424 18.8918 18.7424 19.082V21.1475C18.7424 21.3377 18.5883 21.4918 18.3981 21.4918ZM21.8063 24.9344C21.8063 25.1246 21.6523 25.2787 21.4621 25.2787H19.0522C18.8621 25.2787 18.708 25.1246 18.708 24.9344V22.8689C18.708 22.6787 18.8621 22.5246 19.0522 22.5246H21.4621C21.6523 22.5246 21.8063 22.6787 21.8063 22.8689V24.9344ZM22.5293 21.1475C22.5293 21.3377 22.3752 21.4918 22.185 21.4918H19.7752C19.585 21.4918 19.4309 21.3377 19.4309 21.1475V19.082C19.4309 18.8918 19.585 18.7377 19.7752 18.7377H22.185C22.3752 18.7377 22.5293 18.8918 22.5293 19.082V21.1475ZM23.2178 17.3606C23.2178 17.5508 23.0637 17.7049 22.8736 17.7049H20.4637C20.2735 17.7049 20.1195 17.5508 20.1195 17.3606V15.2951C20.1195 15.1049 20.2735 14.9508 20.4637 14.9508H22.8736C23.0637 14.9508 23.2178 15.1049 23.2178 15.2951V17.3606Z" fill="#8B4513"/>
<path d="M20.1194 19.4263H21.8408V20.8033H20.1194V19.4263Z" fill="#8B4513"/>
<path d="M25.3478 8.52441H23.7842C23.9148 8.78302 24.1823 8.96128 24.4913 8.96128C25.0607 8.96128 25.5241 9.42459 25.5241 9.99407C25.5241 10.5636 25.0607 11.0269 24.4913 11.0269C23.0359 11.0269 21.832 9.933 21.6563 8.52441H20.1343C20.2648 8.78302 20.5323 8.96128 20.8413 8.96128C21.4108 8.96128 21.8741 9.42459 21.8741 9.99407C21.8741 10.5636 21.4108 11.0269 20.8413 11.0269C19.3859 11.0269 18.182 9.933 18.0064 8.52441H16.4843C16.6149 8.78302 16.8824 8.96128 17.1914 8.96128C17.7609 8.96128 18.2242 9.42459 18.2242 9.99407C18.2242 10.5636 17.7609 11.0269 17.1914 11.0269C15.736 11.0269 14.5321 9.933 14.3565 8.52441H12.8342C12.9647 8.78302 13.2322 8.96128 13.5412 8.96128C14.1107 8.96128 14.574 9.42459 14.574 9.99407C14.574 10.5636 14.1107 11.0269 13.5412 11.0269C12.099 11.0269 10.8837 9.93968 10.7069 8.52441H9.1538C9.28434 8.78302 9.5519 8.96128 9.86084 8.96128C10.4303 8.96128 10.8936 9.42459 10.8936 9.99407C10.8936 10.5636 10.4303 11.0269 9.86084 11.0269C8.40544 11.0269 7.20155 9.933 7.02598 8.52441H6.47942L5.44829 12.6096H26.771L27.8022 8.52441H27.2847C27.1394 8.91908 26.7608 9.20185 26.3163 9.20185C25.8718 9.20185 25.4931 8.91908 25.3478 8.52441Z" fill="#8B4513"/>
<path d="M9.86084 10.3385C10.0509 10.3385 10.2051 10.1844 10.2051 9.99428C10.2051 9.80417 10.0509 9.65001 9.86084 9.65001C9.04439 9.65001 8.3801 8.98579 8.3801 8.16927C8.3801 7.35275 9.04432 6.68853 9.86084 6.68853C10.6774 6.68853 11.3416 7.35275 11.3416 8.16927C11.3416 8.22373 11.3554 8.27448 11.3779 8.32026C11.4557 9.44614 12.3959 10.3385 13.5412 10.3385C13.7313 10.3385 13.8855 10.1844 13.8855 9.99428C13.8855 9.80417 13.7313 9.65001 13.5412 9.65001C12.7248 9.65001 12.0605 8.98579 12.0605 8.16927C12.0605 7.35275 12.7248 6.68853 13.5412 6.68853C14.3577 6.68853 15.022 7.35275 15.022 8.16927C15.022 9.36545 15.9951 10.3385 17.1912 10.3385C17.3814 10.3385 17.5355 10.1844 17.5355 9.99428C17.5355 9.80417 17.3814 9.65001 17.1912 9.65001C16.3748 9.65001 15.7105 8.98579 15.7105 8.16927C15.7105 7.35275 16.3747 6.68853 17.1912 6.68853C18.0078 6.68853 18.672 7.35275 18.672 8.16927C18.672 9.36545 19.6451 10.3385 20.8412 10.3385C21.0314 10.3385 21.1855 10.1844 21.1855 9.99428C21.1855 9.80417 21.0314 9.65001 20.8412 9.65001C20.0248 9.65001 19.3605 8.98579 19.3605 8.16927C19.3605 7.35275 20.0247 6.68853 20.8412 6.68853C21.6576 6.68853 22.3219 7.35275 22.3219 8.16927C22.3219 9.36545 23.2951 10.3385 24.4912 10.3385C24.6814 10.3385 24.8355 10.1844 24.8355 9.99428C24.8355 9.80417 24.6814 9.65001 24.4912 9.65001C23.6747 9.65001 23.0105 8.98579 23.0105 8.16927C23.0105 7.35275 23.6747 6.68853 24.4912 6.68853C25.3076 6.68853 25.9719 7.35275 25.9719 8.16927C25.9719 8.35937 26.126 8.51353 26.3162 8.51353C26.5064 8.51353 26.6605 8.35937 26.6605 8.16927C26.6605 6.97309 25.6873 6 24.4912 6C23.726 6 23.0525 6.39873 22.6662 6.99891C22.2799 6.39873 21.6064 6 20.8412 6C20.076 6 19.4024 6.39873 19.0162 6.99891C18.6299 6.39873 17.9564 6 17.1912 6C16.4259 6 15.7524 6.39866 15.3662 6.99884C14.98 6.39866 14.3065 6 13.5412 6C12.7659 6 12.0847 6.40912 11.701 7.0226C11.3174 6.40912 10.6362 6 9.86084 6C8.66467 6 7.69157 6.97309 7.69157 8.16927C7.69157 9.36545 8.66467 10.3385 9.86084 10.3385Z" fill="#8B4513"/>
</svg>
