<svg width="32" height="32" viewBox="0 0 32 32" fill="none" xmlns="http://www.w3.org/2000/svg">
<path d="M27.5649 8.98772L23.8726 5.29541H18.4441L21.0814 8.98772H27.5649Z" fill="#8B4513"/>
<path d="M13.5559 5.29541H8.12744L4.43513 8.98772H10.9186L13.5559 5.29541Z" fill="#8B4513"/>
<path d="M20.5195 9.60352H11.4805L16 26.0686L20.5195 9.60352Z" fill="#8B4513"/>
<path d="M10.8423 9.60352H4.27663L15.2194 25.5497L10.8423 9.60352Z" fill="#8B4513"/>
<path d="M20.3252 8.98772L17.6878 5.29541H14.3122L11.6748 8.98772H20.3252Z" fill="#8B4513"/>
<path d="M21.1577 9.60352L16.7806 25.5497L27.7234 9.60352H21.1577Z" fill="#8B4513"/>
<path d="M15.7457 27.4036L13.4619 24.0757C11.1419 24.5149 9.5385 25.5462 9.5385 26.6155C9.5385 28.1166 12.4975 29.3847 16.0001 29.3847C19.5026 29.3847 22.4616 28.1166 22.4616 26.6155C22.4616 25.5462 20.8582 24.515 18.5384 24.0757L16.2538 27.405C16.2451 27.4171 16.1576 27.5342 16.0021 27.5351C15.8432 27.5361 15.7537 27.415 15.7457 27.4036Z" fill="#8B4513"/>
</svg>
