<svg width="32" height="32" viewBox="0 0 32 32" fill="none" xmlns="http://www.w3.org/2000/svg">
<path d="M27.0486 15.1158H28.56C29.2856 15.1158 29.8987 14.5963 30.0177 13.8805L30.2063 12.7466H18.5176L18.7062 13.8805C18.8252 14.5963 19.4383 15.1158 20.1639 15.1158H21.6753L21.1208 16.8415H19.4973V19.7494C19.4973 21.2677 20.7325 22.503 22.2509 22.503C23.7693 22.503 25.0046 21.2677 25.0046 19.7494V16.8415H21.8127L22.3672 15.1158H26.3566L26.9112 16.8415H25.6634V19.7494C25.6634 21.2677 26.8987 22.503 28.417 22.503C29.9354 22.503 31.1706 21.2677 31.1706 19.7494V16.8415H27.603L27.0486 15.1158Z" fill="#8B4513"/>
<path d="M18.2115 12.088H30.5115C30.8747 12.088 31.1703 11.7925 31.1703 11.4293C31.1703 11.066 30.8747 10.7705 30.5115 10.7705H18.2115C17.8483 10.7705 17.5527 11.066 17.5527 11.4293C17.5527 11.7925 17.8483 12.088 18.2115 12.088Z" fill="#8B4513"/>
<path d="M29.9216 10.1119C29.4208 7.46226 27.094 5.50781 24.3632 5.50781C21.6323 5.50781 19.3054 7.46226 18.8047 10.1119H29.9216Z" fill="#8B4513"/>
<path d="M25.5121 4.95466V4.60098C25.5121 3.9815 25.0082 3.47754 24.3887 3.47754H24.3382C23.7188 3.47754 23.2148 3.9815 23.2148 4.60098V4.95466C23.5942 4.88445 23.9789 4.84906 24.3635 4.84906C24.7481 4.84906 25.1329 4.88445 25.5121 4.95466Z" fill="#8B4513"/>
<path d="M1.65875 12.088H13.9587C14.322 12.088 14.6175 11.7925 14.6175 11.4293C14.6175 11.066 14.322 10.7705 13.9587 10.7705H1.65875C1.29553 10.7705 1 11.066 1 11.4293C1 11.7925 1.29553 12.088 1.65875 12.088Z" fill="#8B4513"/>
<path d="M13.367 10.1119C12.8662 7.46226 10.5394 5.50781 7.80848 5.50781C5.07756 5.50781 2.75073 7.46226 2.25 10.1119H13.367Z" fill="#8B4513"/>
<path d="M8.95746 4.9546V4.60098C8.95746 3.9815 8.4535 3.47754 7.83408 3.47754H7.78353C7.16411 3.47754 6.66016 3.9815 6.66016 4.60098V4.95466C7.41877 4.81437 8.19897 4.81444 8.95746 4.9546Z" fill="#8B4513"/>
<path d="M3.75368 22.5035C5.27206 22.5035 6.50736 21.2682 6.50736 19.7499V16.842H5.25955L5.81405 15.1163H9.80348L10.358 16.842H7.16617V19.7499C7.16617 21.2682 8.40146 22.5035 9.91978 22.5035C11.4382 22.5035 12.6735 21.2682 12.6735 19.7499V16.842H11.0499L10.4954 15.1163H12.0068C12.7324 15.1163 13.3456 14.5968 13.4646 13.881L13.6531 12.7471H1.9644L2.15297 13.881C2.27204 14.5968 2.88508 15.1163 3.61068 15.1163H5.1221L4.5676 16.842H1V19.7499C1 21.2682 2.2353 22.5035 3.75368 22.5035Z" fill="#8B4513"/>
<path d="M13.3321 19.7496C13.3321 21.268 14.5674 22.5032 16.0857 22.5032C17.6041 22.5032 18.8393 21.268 18.8393 19.7496V16.8418H13.332L13.3321 19.7496Z" fill="#8B4513"/>
<path d="M25.3347 21.2119C24.7861 22.364 23.6104 23.1622 22.2516 23.1622C20.8929 23.1622 19.7171 22.364 19.1685 21.2119C18.6199 22.364 17.4441 23.1622 16.0855 23.1622C14.7268 23.1622 13.551 22.364 13.0024 21.2119C12.4538 22.364 11.2781 23.1622 9.91936 23.1622C8.5606 23.1622 7.38487 22.364 6.83631 21.2119C6.28774 22.364 5.11201 23.1622 3.75325 23.1622C3.09541 23.1622 2.46451 22.9763 1.92188 22.6297V29.6778H30.249V22.6298C29.7063 22.9764 29.0754 23.1622 28.4176 23.1622C27.059 23.1622 25.8832 22.364 25.3347 21.2119Z" fill="#8B4513"/>
<path d="M18.8537 5.99494C18.9089 5.99494 18.9649 5.98102 19.0165 5.95169C19.6315 5.6011 19.9528 5.20423 19.9987 4.73837C19.999 4.73592 19.9992 4.73341 19.9993 4.7309C20.026 4.37902 19.8745 4.11721 19.7528 3.90685C19.6538 3.73581 19.5757 3.60062 19.5773 3.43435C19.5842 3.10163 19.9111 2.79462 20.1842 2.59567C20.3312 2.48859 20.3636 2.28254 20.2565 2.13549C20.1494 1.98837 19.9433 1.95607 19.7963 2.06322C19.232 2.47434 18.9285 2.94381 18.9186 3.42417C18.915 3.77436 19.0634 4.03076 19.1826 4.2368C19.291 4.42396 19.3521 4.53736 19.3428 4.67745C19.3178 4.9107 19.0983 5.14685 18.6903 5.37939C18.3968 5.53334 18.5291 6.00732 18.8537 5.99494Z" fill="#8B4513"/>
<path d="M28.5417 2.59566C28.8148 2.79468 29.1417 3.10162 29.1485 3.43106C29.1503 3.60068 29.072 3.73587 28.9731 3.90697C28.8514 4.11727 28.6999 4.37901 28.7265 4.73089C28.7266 4.7334 28.7269 4.73592 28.7271 4.73843C28.773 5.20428 29.0944 5.60116 29.7094 5.95174C29.7609 5.98108 29.8169 5.995 29.8722 5.995C30.1967 6.00738 30.3291 5.53347 30.0357 5.37938C29.6278 5.14684 29.4083 4.91069 29.3831 4.67751C29.3738 4.53748 29.4349 4.42401 29.5433 4.23679C29.6625 4.03075 29.8109 3.77429 29.8073 3.42081C29.7975 2.9438 29.494 2.47433 28.9296 2.06321C28.7826 1.956 28.5765 1.98849 28.4695 2.13548C28.3623 2.28254 28.3947 2.48852 28.5417 2.59566Z" fill="#8B4513"/>
<path d="M2.30089 5.99493C2.35621 5.99493 2.41223 5.981 2.46374 5.95167C3.07884 5.60108 3.40016 5.20421 3.446 4.73836C3.44626 4.73584 3.44645 4.73333 3.44664 4.73088C3.47327 4.379 3.32176 4.11719 3.20005 3.90683C3.10102 3.73579 3.02282 3.6006 3.02456 3.43434C3.03133 3.10161 3.35832 2.79461 3.63148 2.59565C3.77853 2.48857 3.81089 2.28253 3.70381 2.13547C3.5966 1.98842 3.39055 1.95605 3.24363 2.0632C2.67913 2.47432 2.37561 2.94372 2.36588 3.42408C2.36227 3.77428 2.51061 4.03068 2.62988 4.23672C2.73819 4.42394 2.79937 4.53734 2.79002 4.67743C2.76501 4.91062 2.54555 5.14677 2.13753 5.37931C1.84406 5.53333 1.97648 6.00724 2.30089 5.99493Z" fill="#8B4513"/>
<path d="M11.987 2.59566C12.2601 2.79468 12.5872 3.10162 12.5939 3.43106C12.5956 3.60068 12.5174 3.73587 12.4184 3.90697C12.2967 4.11727 12.1452 4.37901 12.1718 4.73095C12.172 4.73347 12.1722 4.73592 12.1724 4.73843C12.2183 5.20429 12.5397 5.60122 13.1547 5.95174C13.2061 5.98108 13.2622 5.995 13.3175 5.995C13.6419 6.00731 13.7744 5.53347 13.481 5.37938C13.073 5.14684 12.8535 4.91069 12.8285 4.67744C12.8191 4.53748 12.8803 4.42401 12.9886 4.23679C13.1078 4.03075 13.2562 3.77429 13.2526 3.42087C13.2428 2.94386 12.9394 2.47433 12.3749 2.06321C12.2279 1.956 12.0218 1.98849 11.9147 2.13548C11.8076 2.28254 11.84 2.48852 11.987 2.59566Z" fill="#8B4513"/>
</svg>
