<svg width="32" height="32" viewBox="0 0 32 32" fill="none" xmlns="http://www.w3.org/2000/svg">
<path d="M20.062 20.3576C19.0559 19.4133 18.3879 17.8457 18.3231 16.3076H14.2921C14.2255 17.8328 13.5458 19.4115 12.5224 20.3868C11.4164 21.441 10.812 22.8628 10.8206 24.3906C10.8373 27.3572 13.2636 29.8042 16.2293 29.8455C16.2554 29.846 16.2818 29.8461 16.3078 29.8461H16.3082C17.7738 29.8461 19.1515 29.2755 20.1878 28.2391C21.2242 27.2028 21.7949 25.8248 21.7949 24.3589C21.7949 22.8273 21.1795 21.4063 20.062 20.3576ZM18.1598 26.498C17.5789 27.0706 16.8129 27.3845 15.9983 27.3845C15.9836 27.3845 15.9688 27.3844 15.9539 27.3842C14.2897 27.361 12.9281 25.9878 12.9186 24.3231C12.9138 23.4657 13.253 22.6679 13.8737 22.0764C13.9967 21.9592 14.1915 21.9639 14.3087 22.0869C14.4259 22.21 14.4212 22.4047 14.2982 22.522C13.8016 22.9951 13.5302 23.6336 13.5341 24.3196C13.5416 25.6516 14.631 26.7503 15.9625 26.7689C16.6272 26.7753 17.2545 26.5264 17.7277 26.0597C18.2009 25.593 18.4616 24.97 18.4616 24.3054C18.4616 24.1354 18.5993 23.9977 18.7693 23.9977C18.9393 23.9977 19.077 24.1354 19.077 24.3054C19.0769 25.136 18.7512 25.9146 18.1598 26.498Z" fill="#8B4513"/>
<path d="M10.9709 2.15381L5.08467 15.6923H9.91347L13.2903 2.15381H10.9709Z" fill="#8B4513"/>
<path d="M24.3077 18.8097V15.6923H27.5307L21.6444 2.15381H19.3085L21.6331 13.4766C21.6673 13.643 21.5601 13.8057 21.3936 13.8398C21.2268 13.874 21.0644 13.7667 21.0303 13.6003L18.6802 2.15381H13.9246L10.5477 15.6923H13.9897H18.6256H23.6923V18.8097C23.1623 18.9469 22.7692 19.4277 22.7692 20C22.7692 20.6786 23.3213 21.2307 24 21.2307C24.6786 21.2307 25.2308 20.6786 25.2308 20C25.2308 19.4277 24.8377 18.9469 24.3077 18.8097ZM16.3077 12.3077C15.9678 12.3077 15.6923 12.0321 15.6923 11.6923C15.6923 11.3524 15.9678 11.0769 16.3077 11.0769C16.6475 11.0769 16.9231 11.3524 16.9231 11.6923C16.9231 12.0321 16.6475 12.3077 16.3077 12.3077ZM16 9.84612V5.53842C16 5.36852 16.1377 5.23073 16.3077 5.23073C16.4777 5.23073 16.6154 5.36852 16.6154 5.53842V9.84612C16.6154 10.016 16.4777 10.1538 16.3077 10.1538C16.1377 10.1538 16 10.016 16 9.84612ZM16.3077 4.30765C15.9678 4.30765 15.6923 4.03215 15.6923 3.69227C15.6923 3.35239 15.9678 3.07689 16.3077 3.07689C16.6475 3.07689 16.9231 3.35239 16.9231 3.69227C16.9231 4.03215 16.6475 4.30765 16.3077 4.30765Z" fill="#8B4513"/>
</svg>
