<svg width="32" height="32" viewBox="0 0 32 32" fill="none" xmlns="http://www.w3.org/2000/svg">
<path d="M7.01776 26H6V29H14V26H7.01776ZM7.90282 27.7118C7.84016 27.7682 7.7549 27.7998 7.66696 27.7998C7.57879 27.7998 7.49285 27.7682 7.43087 27.7118C7.36865 27.656 7.33352 27.5791 7.33352 27.4999C7.33352 27.4209 7.36865 27.3434 7.43087 27.2876C7.49285 27.2318 7.57879 27.2 7.66696 27.2C7.7549 27.2 7.84016 27.2318 7.90282 27.2876C7.96481 27.3434 8.00017 27.4205 8.00017 27.4999C8.00017 27.5791 7.96481 27.656 7.90282 27.7118Z" fill="#8B4513"/>
<path d="M19.9422 8.12352C20.6738 7.19805 21 6.366 21 5.4252C21 4.088 19.9476 3 18.6539 3C17.5611 3 16.9623 3.47286 16.2808 4.87343C16.2292 4.97953 16.1191 5.04741 15.9984 5.04741C15.8776 5.04741 15.7678 4.97994 15.716 4.87343C15.0348 3.47286 14.436 3 13.3429 3C12.0509 3 11 4.088 11 5.42561C11 6.36641 11.3258 7.19866 12.0572 8.12373C12.6432 8.86562 13.4478 9.60526 14.2994 10.3884L14.4845 10.5585C14.9685 11.0042 15.4804 11.4797 15.9984 12C16.5171 11.4791 17.0292 11.0036 17.5134 10.5579L17.6997 10.387C18.5514 9.60403 19.356 8.8646 19.9422 8.12352Z" fill="#8B4513"/>
<path d="M12.995 24.9998C13.0176 24.2738 12.959 22.7398 12.9169 22.4176C12.8207 21.6541 12.166 19.949 11.2371 18.4143C10.1934 16.6904 9.12935 15.7012 8.31779 15.7012C8.26248 15.7012 8.20717 15.7059 8.15379 15.7152C8.11226 15.7221 8.07309 15.7303 8.03543 15.74C7.8497 15.8141 7.77911 15.9221 7.74145 16.0055C7.54884 16.4328 7.70056 17.485 9.51716 20.0705C9.56321 20.1361 9.60217 20.1916 9.63251 20.2357C9.72979 20.3766 9.68847 20.566 9.5404 20.6584C9.48638 20.692 9.42526 20.7084 9.36479 20.7084C9.26063 20.7084 9.15819 20.6598 9.09664 20.5705C9.06672 20.5277 9.02884 20.4736 8.9843 20.41C7.87101 18.8252 6.65635 16.865 7.15242 15.7648C7.16275 15.7418 7.17501 15.7176 7.18793 15.6936C7.18233 15.6449 7.18836 15.5941 7.20859 15.5457C7.79116 14.158 8.25559 11.8162 7.98916 10.4537C7.88973 9.93115 7.38248 9 6.72522 9C6.66647 9 6.60642 9.00738 6.54617 9.02254C6.09659 9.13545 5.31064 10.4551 4.64822 13.0857C4.09426 15.2863 3.85817 17.5037 4.08651 18.3582C4.41923 19.6094 5.01472 20.3502 5.59063 21.067C6.34753 22.009 7.12939 22.982 7.2159 25H12.995V24.9998Z" fill="#8B4513"/>
<path d="M19.2918 26H19V29H26V26H19.2918ZM24.7476 27.7118C24.6934 27.7682 24.6186 27.7998 24.5418 27.7998C24.4649 27.7998 24.3901 27.7682 24.3352 27.7118C24.281 27.656 24.25 27.5791 24.25 27.4999C24.25 27.4209 24.281 27.3434 24.3352 27.2876C24.3901 27.2318 24.4647 27.2 24.5418 27.2C24.6186 27.2 24.6934 27.2318 24.7476 27.2876C24.8024 27.3434 24.8334 27.4205 24.8334 27.4999C24.8334 27.5787 24.8024 27.656 24.7476 27.7118Z" fill="#8B4513"/>
<path d="M27.3518 13.0859C26.6896 10.4553 25.9032 9.13566 25.453 9.02254C25.3936 9.00758 25.3334 9 25.2748 9C24.6176 9 24.1104 9.93135 24.0109 10.4527C23.7447 11.8164 24.2087 14.1578 24.7915 15.5459C24.8117 15.5941 24.818 15.6451 24.8121 15.6939C24.8251 15.7178 24.8373 15.7418 24.8479 15.765C25.3437 16.8652 24.1293 18.8254 23.0154 20.4107C22.9708 20.4738 22.9332 20.5279 22.9037 20.5707C22.8419 20.66 22.7397 20.7086 22.6351 20.7086C22.5751 20.7086 22.5137 20.6922 22.4597 20.6586C22.3117 20.566 22.2703 20.3768 22.3676 20.2359C22.398 20.1916 22.4369 20.1363 22.4825 20.0711C24.2993 17.485 24.4512 16.433 24.2584 16.0057C24.221 15.9221 24.1502 15.8141 23.964 15.7398C23.9274 15.7305 23.8896 15.7223 23.8495 15.7158C23.7929 15.7061 23.7378 15.7012 23.6821 15.7012C22.8705 15.7012 21.8068 16.6902 20.763 18.4143C19.834 19.949 19.1795 21.6543 19.0836 22.4162C19.0412 22.7395 18.9824 24.2738 19.005 25H24.7842C24.8707 22.9816 25.6523 22.009 26.4096 21.0668C26.9853 20.3502 27.5808 19.6092 27.9133 18.3588C28.142 17.5039 27.9057 15.2863 27.3518 13.0859Z" fill="#8B4513"/>
</svg>
