<svg width="32" height="32" viewBox="0 0 32 32" fill="none" xmlns="http://www.w3.org/2000/svg">
<path d="M23.0312 25.5312H19.3218C17.4895 27.0795 16.0285 27.9723 16.0056 27.9861C15.9024 28.0486 15.7722 28.0461 15.6713 27.9794C15.6521 27.9668 14.2632 27.0426 12.5019 25.5312H8.65625C7.62238 25.5312 6.78125 26.3724 6.78125 27.4062C6.78125 28.4401 7.62238 29.2812 8.65625 29.2812H23.0312C24.0651 29.2812 24.9062 28.4401 24.9062 27.4062C24.9062 26.3724 24.0651 25.5312 23.0312 25.5312Z" fill="#8B4513"/>
<path d="M23.0312 11.7812C20.2743 11.7812 18.0312 14.0243 18.0312 16.7812C18.0312 19.5382 20.2743 21.7812 23.0312 21.7812C25.7882 21.7812 28.0312 19.5382 28.0312 16.7812C28.0312 14.0243 25.7882 11.7812 23.0312 11.7812ZM26.4021 15.9527L24.5387 17.3066L25.2504 19.4972C25.2923 19.6259 25.2465 19.7669 25.1369 19.8466C25.0274 19.9261 24.8791 19.9261 24.7696 19.8466L22.9062 18.4928L21.0427 19.8466C20.9332 19.9261 20.7849 19.9261 20.6754 19.8466C20.5659 19.767 20.5201 19.6259 20.5619 19.4972L21.2737 17.3066L19.4103 15.9527C19.3008 15.8731 19.2549 15.7321 19.2968 15.6033C19.3386 15.4746 19.4586 15.3874 19.594 15.3874H21.8974L22.6092 13.1968C22.651 13.0681 22.771 12.9809 22.9064 12.9809C23.0418 12.9809 23.1617 13.0681 23.2036 13.1968L23.9154 15.3874H26.2188C26.3541 15.3874 26.4741 15.4746 26.5159 15.6033C26.5574 15.7321 26.5116 15.8731 26.4021 15.9527Z" fill="#8B4513"/>
<path d="M23.3908 15.7965L22.9061 14.3047L22.4213 15.7965C22.3795 15.9253 22.2595 16.0124 22.1241 16.0124H20.5555L21.8245 16.9344C21.9341 17.014 21.9799 17.1551 21.938 17.2838L21.4533 18.7757L22.7224 17.8537C22.8319 17.7741 22.9802 17.7741 23.0897 17.8537L24.3587 18.7757L23.8741 17.2838C23.8322 17.1551 23.878 17.0141 23.9876 16.9344L25.2566 16.0124H23.6879C23.5526 16.0124 23.4326 15.9253 23.3908 15.7965Z" fill="#8B4513"/>
<path d="M15.8504 27.3452C16.5526 26.8947 19.3204 25.0383 21.8008 22.2703C20.0159 21.8705 18.5487 20.6202 17.8489 18.9685C17.2026 19.1759 16.5296 19.2812 15.8438 19.2812C12.2252 19.2812 9.28125 16.3373 9.28125 12.7188C9.28125 9.10019 12.2252 6.15625 15.8438 6.15625C18.9029 6.15625 21.5416 8.26506 22.2321 11.2133C23.6028 11.0175 25.0004 11.3273 26.1671 12.1137C26.0361 9.93788 25.0886 7.86206 23.4587 6.21037C21.4649 4.19 18.6894 3.03125 15.8438 3.03125C13.0418 3.03125 10.4158 4.12944 8.4495 6.12356C6.52963 8.07056 5.49325 10.6332 5.53125 13.3394C5.58356 17.0664 8.42113 20.7003 10.7923 23.0926C13.0079 25.3278 15.2358 26.9204 15.8504 27.3452Z" fill="#8B4513"/>
</svg>
