<svg width="32" height="32" viewBox="0 0 32 32" fill="none" xmlns="http://www.w3.org/2000/svg">
<path d="M20.2188 16.7812V14.9062H18.0312C17.8586 14.9062 17.7188 14.7663 17.7188 14.5938V12.4062H15.8438V14.5938C15.8438 14.7663 15.7038 14.9062 15.5312 14.9062H13.3438V16.7812H15.5312C15.7038 16.7812 15.8438 16.9211 15.8438 17.0938V19.2812H17.7188V17.0938C17.7188 16.9211 17.8586 16.7812 18.0312 16.7812H20.2188Z" fill="#8B4513"/>
<path d="M26.8347 9.44581C25.0517 9.30512 23.6092 7.93081 23.3831 6.15625H10.1794C9.95324 7.93081 8.51081 9.30506 6.72787 9.44575C6.53031 15.1385 6.53918 14.9034 6.53756 14.9215C6.20299 18.5186 7.81212 22.0704 10.737 24.1909L16.7814 28.5733L22.826 24.1909C25.7506 22.0702 27.3596 18.5184 27.0251 14.9215C27.0233 14.9032 27.0322 15.1386 26.8347 9.44581ZM8.96874 15.8438C8.96874 16.0164 8.82881 16.1562 8.65624 16.1562C8.48368 16.1562 8.34374 16.0164 8.34374 15.8438C8.34374 11.1913 12.1288 7.40625 16.7812 7.40625C16.9539 7.40625 17.0937 7.54619 17.0937 7.71875C17.0937 7.89131 16.9539 8.03125 16.7812 8.03125C12.4734 8.03125 8.96874 11.5359 8.96874 15.8438ZM10.2187 15.8438C10.2187 12.2252 13.1627 9.28125 16.7812 9.28125C20.3998 9.28125 23.3437 12.2252 23.3437 15.8438C23.3437 19.4623 20.3998 22.4062 16.7812 22.4062C13.1627 22.4062 10.2187 19.4623 10.2187 15.8438ZM16.7812 24.2812C16.6086 24.2812 16.4687 24.1414 16.4687 23.9688C16.4687 23.7961 16.6086 23.6562 16.7812 23.6562C21.0891 23.6562 24.5937 20.1516 24.5937 15.8438C24.5937 15.6712 24.7336 15.5312 24.9062 15.5312C25.0789 15.5312 25.2187 15.6712 25.2187 15.8438C25.2187 20.4963 21.4337 24.2812 16.7812 24.2812Z" fill="#8B4513"/>
<path d="M22.7188 15.8438C22.7188 12.5698 20.0552 9.90625 16.7812 9.90625C13.5073 9.90625 10.8438 12.5698 10.8438 15.8438C10.8438 19.1177 13.5073 21.7812 16.7812 21.7812C20.0552 21.7812 22.7188 19.1177 22.7188 15.8438ZM15.2188 19.5938V17.4062H13.0312C12.8587 17.4062 12.7188 17.2664 12.7188 17.0938V14.5938C12.7188 14.4212 12.8587 14.2812 13.0312 14.2812H15.2188V12.0938C15.2188 11.9212 15.3587 11.7812 15.5312 11.7812H18.0312C18.2039 11.7812 18.3438 11.9212 18.3438 12.0938V14.2812H20.5312C20.7039 14.2812 20.8438 14.4212 20.8438 14.5938V17.0938C20.8438 17.2664 20.7039 17.4062 20.5312 17.4062H18.3438V19.5938C18.3438 19.7664 18.2039 19.9062 18.0312 19.9062H15.5312C15.3587 19.9062 15.2188 19.7664 15.2188 19.5938Z" fill="#8B4513"/>
</svg>
