<svg width="32" height="32" viewBox="0 0 32 32" fill="none" xmlns="http://www.w3.org/2000/svg">
<path d="M3.631 12.8207L6.08286 15.2726C11.8699 9.74935 20.989 9.737 26.7889 15.2726L29.2408 12.8207C22.0989 5.94407 10.7868 5.93065 3.631 12.8207Z" fill="#8B4513"/>
<path d="M12.5127 21.7019L16.4359 25.6251L20.3591 21.7019C18.126 19.7194 14.7494 19.7163 12.5127 21.7019Z" fill="#8B4513"/>
<path d="M9.55077 18.7402L12.0048 21.1942C14.5217 18.9303 18.3492 18.9295 20.8672 21.1942L23.3212 18.7402C19.4523 15.1309 13.4322 15.1191 9.55077 18.7402Z" fill="#8B4513"/>
<path d="M6.59053 15.7801L9.04326 18.2329C13.1756 14.3597 19.6494 14.3157 23.8285 18.2329L26.2812 15.7801C20.8318 10.5911 12.162 10.4751 6.59053 15.7801Z" fill="#8B4513"/>
</svg>
